<mxfile host="app.diagrams.net" modified="2021-11-07T15:20:14.627Z" agent="5.0 (Windows NT 10.0; Win64; x64) AppleWebKit/537.36 (KHTML, like Gecko) Chrome/95.0.4638.69 Safari/537.36" etag="AJKGzCqctnSRzo-TqGt9" version="15.7.0" type="github">
  <diagram id="qTP_RNJtwkXyMyez5sJ1" name="第 1 页">
    <mxGraphModel dx="1422" dy="1923" grid="1" gridSize="10" guides="1" tooltips="1" connect="1" arrows="1" fold="1" page="1" pageScale="1" pageWidth="827" pageHeight="1169" math="0" shadow="0">
      <root>
        <mxCell id="0" />
        <mxCell id="1" parent="0" />
        <mxCell id="M7gRF7yc7V4BCxx9e8g0-3" value="" style="edgeStyle=orthogonalEdgeStyle;rounded=0;orthogonalLoop=1;jettySize=auto;html=1;" edge="1" parent="1" source="M7gRF7yc7V4BCxx9e8g0-1" target="M7gRF7yc7V4BCxx9e8g0-2">
          <mxGeometry relative="1" as="geometry" />
        </mxCell>
        <mxCell id="M7gRF7yc7V4BCxx9e8g0-1" value="@EnableAspectJAutoProxy" style="rounded=0;whiteSpace=wrap;html=1;" vertex="1" parent="1">
          <mxGeometry x="140" y="200" width="190" height="60" as="geometry" />
        </mxCell>
        <mxCell id="M7gRF7yc7V4BCxx9e8g0-5" value="" style="edgeStyle=orthogonalEdgeStyle;rounded=0;orthogonalLoop=1;jettySize=auto;html=1;" edge="1" parent="1" source="M7gRF7yc7V4BCxx9e8g0-2" target="M7gRF7yc7V4BCxx9e8g0-4">
          <mxGeometry relative="1" as="geometry" />
        </mxCell>
        <mxCell id="M7gRF7yc7V4BCxx9e8g0-2" value="@Import(AspectJAutoProxyRegistrar.class)" style="whiteSpace=wrap;html=1;rounded=0;" vertex="1" parent="1">
          <mxGeometry x="440" y="200" width="310" height="60" as="geometry" />
        </mxCell>
        <mxCell id="M7gRF7yc7V4BCxx9e8g0-7" value="1" style="edgeStyle=orthogonalEdgeStyle;rounded=0;orthogonalLoop=1;jettySize=auto;html=1;" edge="1" parent="1" source="M7gRF7yc7V4BCxx9e8g0-4" target="M7gRF7yc7V4BCxx9e8g0-6">
          <mxGeometry x="0.625" relative="1" as="geometry">
            <mxPoint as="offset" />
          </mxGeometry>
        </mxCell>
        <mxCell id="M7gRF7yc7V4BCxx9e8g0-9" value="" style="edgeStyle=orthogonalEdgeStyle;rounded=0;orthogonalLoop=1;jettySize=auto;html=1;" edge="1" parent="1" source="M7gRF7yc7V4BCxx9e8g0-4" target="M7gRF7yc7V4BCxx9e8g0-8">
          <mxGeometry relative="1" as="geometry" />
        </mxCell>
        <mxCell id="M7gRF7yc7V4BCxx9e8g0-10" value="2" style="edgeLabel;html=1;align=center;verticalAlign=middle;resizable=0;points=[];" vertex="1" connectable="0" parent="M7gRF7yc7V4BCxx9e8g0-9">
          <mxGeometry x="0.6049" y="3" relative="1" as="geometry">
            <mxPoint as="offset" />
          </mxGeometry>
        </mxCell>
        <mxCell id="M7gRF7yc7V4BCxx9e8g0-12" value="" style="edgeStyle=orthogonalEdgeStyle;rounded=0;orthogonalLoop=1;jettySize=auto;html=1;" edge="1" parent="1" source="M7gRF7yc7V4BCxx9e8g0-4" target="M7gRF7yc7V4BCxx9e8g0-11">
          <mxGeometry relative="1" as="geometry" />
        </mxCell>
        <mxCell id="M7gRF7yc7V4BCxx9e8g0-13" value="3" style="edgeLabel;html=1;align=center;verticalAlign=middle;resizable=0;points=[];" vertex="1" connectable="0" parent="M7gRF7yc7V4BCxx9e8g0-12">
          <mxGeometry x="0.4339" y="-2" relative="1" as="geometry">
            <mxPoint as="offset" />
          </mxGeometry>
        </mxCell>
        <mxCell id="M7gRF7yc7V4BCxx9e8g0-4" value="registerBeanDefinition" style="whiteSpace=wrap;html=1;rounded=0;" vertex="1" parent="1">
          <mxGeometry x="840" y="200" width="170" height="60" as="geometry" />
        </mxCell>
        <mxCell id="M7gRF7yc7V4BCxx9e8g0-26" value="1-1" style="edgeStyle=orthogonalEdgeStyle;rounded=0;orthogonalLoop=1;jettySize=auto;html=1;" edge="1" parent="1" source="M7gRF7yc7V4BCxx9e8g0-6" target="M7gRF7yc7V4BCxx9e8g0-25">
          <mxGeometry relative="1" as="geometry" />
        </mxCell>
        <mxCell id="M7gRF7yc7V4BCxx9e8g0-6" value="注册名字为internalAutoProxyProxyCreator的AnnotationAwareAspectJAutoProxyCreator" style="whiteSpace=wrap;html=1;rounded=0;" vertex="1" parent="1">
          <mxGeometry x="1070" y="-100" width="320" height="70" as="geometry" />
        </mxCell>
        <mxCell id="M7gRF7yc7V4BCxx9e8g0-8" value="获取注解属性" style="whiteSpace=wrap;html=1;rounded=0;" vertex="1" parent="1">
          <mxGeometry x="1420" y="200" width="120" height="60" as="geometry" />
        </mxCell>
        <mxCell id="M7gRF7yc7V4BCxx9e8g0-15" value="" style="edgeStyle=orthogonalEdgeStyle;rounded=0;orthogonalLoop=1;jettySize=auto;html=1;" edge="1" parent="1" source="M7gRF7yc7V4BCxx9e8g0-11" target="M7gRF7yc7V4BCxx9e8g0-14">
          <mxGeometry relative="1" as="geometry" />
        </mxCell>
        <mxCell id="M7gRF7yc7V4BCxx9e8g0-11" value="根据proxyTargetClass/exposeProxy设置BeanDefinition属性" style="whiteSpace=wrap;html=1;rounded=0;" vertex="1" parent="1">
          <mxGeometry x="1125" y="600" width="210" height="90" as="geometry" />
        </mxCell>
        <mxCell id="M7gRF7yc7V4BCxx9e8g0-17" value="否" style="edgeStyle=orthogonalEdgeStyle;rounded=0;orthogonalLoop=1;jettySize=auto;html=1;" edge="1" parent="1" source="M7gRF7yc7V4BCxx9e8g0-14">
          <mxGeometry relative="1" as="geometry">
            <mxPoint x="1390" y="850" as="targetPoint" />
          </mxGeometry>
        </mxCell>
        <mxCell id="M7gRF7yc7V4BCxx9e8g0-14" value="注解属性是否为空" style="rhombus;whiteSpace=wrap;html=1;rounded=0;" vertex="1" parent="1">
          <mxGeometry x="1190" y="810" width="80" height="80" as="geometry" />
        </mxCell>
        <mxCell id="M7gRF7yc7V4BCxx9e8g0-20" value="否" style="edgeStyle=orthogonalEdgeStyle;rounded=0;orthogonalLoop=1;jettySize=auto;html=1;" edge="1" parent="1" source="M7gRF7yc7V4BCxx9e8g0-18" target="M7gRF7yc7V4BCxx9e8g0-19">
          <mxGeometry relative="1" as="geometry" />
        </mxCell>
        <mxCell id="M7gRF7yc7V4BCxx9e8g0-24" value="是" style="edgeStyle=orthogonalEdgeStyle;rounded=0;orthogonalLoop=1;jettySize=auto;html=1;" edge="1" parent="1" source="M7gRF7yc7V4BCxx9e8g0-18" target="M7gRF7yc7V4BCxx9e8g0-23">
          <mxGeometry relative="1" as="geometry" />
        </mxCell>
        <mxCell id="M7gRF7yc7V4BCxx9e8g0-18" value="ProxyTargetClass是否设置为true" style="rhombus;whiteSpace=wrap;html=1;" vertex="1" parent="1">
          <mxGeometry x="1390" y="810" width="80" height="80" as="geometry" />
        </mxCell>
        <mxCell id="M7gRF7yc7V4BCxx9e8g0-22" value="是" style="edgeStyle=orthogonalEdgeStyle;rounded=0;orthogonalLoop=1;jettySize=auto;html=1;" edge="1" parent="1" source="M7gRF7yc7V4BCxx9e8g0-19" target="M7gRF7yc7V4BCxx9e8g0-21">
          <mxGeometry relative="1" as="geometry" />
        </mxCell>
        <mxCell id="M7gRF7yc7V4BCxx9e8g0-19" value="ProxyTargetClass是否设置为true" style="rhombus;whiteSpace=wrap;html=1;" vertex="1" parent="1">
          <mxGeometry x="1610" y="810" width="80" height="80" as="geometry" />
        </mxCell>
        <mxCell id="M7gRF7yc7V4BCxx9e8g0-21" value="使用ExposeProxy" style="whiteSpace=wrap;html=1;" vertex="1" parent="1">
          <mxGeometry x="1590" y="980" width="120" height="60" as="geometry" />
        </mxCell>
        <mxCell id="M7gRF7yc7V4BCxx9e8g0-23" value="使用classProxy" style="whiteSpace=wrap;html=1;" vertex="1" parent="1">
          <mxGeometry x="1370" y="980" width="120" height="60" as="geometry" />
        </mxCell>
        <mxCell id="M7gRF7yc7V4BCxx9e8g0-28" value="1-1-1" style="edgeStyle=orthogonalEdgeStyle;rounded=0;orthogonalLoop=1;jettySize=auto;html=1;" edge="1" parent="1" source="M7gRF7yc7V4BCxx9e8g0-25" target="M7gRF7yc7V4BCxx9e8g0-27">
          <mxGeometry relative="1" as="geometry" />
        </mxCell>
        <mxCell id="M7gRF7yc7V4BCxx9e8g0-25" value="AOPConfigUtils#&lt;br&gt;registerAspectJAnnotationAutoProxyCreatorIfNecessary-&lt;br&gt;register1OrEscalateApcAsRequired(AnnotationAwareAspectJAutoProxyCreator.class，registry，source)" style="whiteSpace=wrap;html=1;rounded=0;" vertex="1" parent="1">
          <mxGeometry x="1600" y="-93.5" width="590" height="57.5" as="geometry" />
        </mxCell>
        <mxCell id="M7gRF7yc7V4BCxx9e8g0-32" value="1-1-1-1" style="edgeStyle=orthogonalEdgeStyle;rounded=0;orthogonalLoop=1;jettySize=auto;html=1;" edge="1" parent="1" source="M7gRF7yc7V4BCxx9e8g0-27" target="M7gRF7yc7V4BCxx9e8g0-31">
          <mxGeometry relative="1" as="geometry" />
        </mxCell>
        <mxCell id="M7gRF7yc7V4BCxx9e8g0-27" value="&lt;span style=&quot;text-align: left&quot;&gt;BeanFactoryAspectJAdvisorsBuilder&lt;/span&gt;" style="whiteSpace=wrap;html=1;rounded=0;" vertex="1" parent="1">
          <mxGeometry x="2360" y="-96" width="280" height="56" as="geometry" />
        </mxCell>
        <mxCell id="M7gRF7yc7V4BCxx9e8g0-34" value="1-1-1-1-1" style="edgeStyle=orthogonalEdgeStyle;rounded=0;orthogonalLoop=1;jettySize=auto;html=1;" edge="1" parent="1" source="M7gRF7yc7V4BCxx9e8g0-31" target="M7gRF7yc7V4BCxx9e8g0-33">
          <mxGeometry x="0.602" relative="1" as="geometry">
            <mxPoint as="offset" />
          </mxGeometry>
        </mxCell>
        <mxCell id="M7gRF7yc7V4BCxx9e8g0-36" value="" style="edgeStyle=orthogonalEdgeStyle;rounded=0;orthogonalLoop=1;jettySize=auto;html=1;" edge="1" parent="1" source="M7gRF7yc7V4BCxx9e8g0-31">
          <mxGeometry relative="1" as="geometry">
            <mxPoint x="3180" y="-180" as="targetPoint" />
          </mxGeometry>
        </mxCell>
        <mxCell id="M7gRF7yc7V4BCxx9e8g0-42" value="1-1-1-1-2" style="edgeLabel;html=1;align=center;verticalAlign=middle;resizable=0;points=[];" vertex="1" connectable="0" parent="M7gRF7yc7V4BCxx9e8g0-36">
          <mxGeometry x="0.8268" y="1" relative="1" as="geometry">
            <mxPoint as="offset" />
          </mxGeometry>
        </mxCell>
        <mxCell id="M7gRF7yc7V4BCxx9e8g0-41" value="" style="edgeStyle=orthogonalEdgeStyle;rounded=0;orthogonalLoop=1;jettySize=auto;html=1;" edge="1" parent="1" source="M7gRF7yc7V4BCxx9e8g0-31" target="M7gRF7yc7V4BCxx9e8g0-40">
          <mxGeometry relative="1" as="geometry" />
        </mxCell>
        <mxCell id="M7gRF7yc7V4BCxx9e8g0-43" value="1-1-1-1-3" style="edgeLabel;html=1;align=center;verticalAlign=middle;resizable=0;points=[];" vertex="1" connectable="0" parent="M7gRF7yc7V4BCxx9e8g0-41">
          <mxGeometry x="0.8569" y="3" relative="1" as="geometry">
            <mxPoint as="offset" />
          </mxGeometry>
        </mxCell>
        <mxCell id="M7gRF7yc7V4BCxx9e8g0-31" value="buildAspectJAdvisor()" style="whiteSpace=wrap;html=1;rounded=0;" vertex="1" parent="1">
          <mxGeometry x="2750" y="-98" width="160" height="58" as="geometry" />
        </mxCell>
        <mxCell id="M7gRF7yc7V4BCxx9e8g0-33" value="获取已经存在的切面信息" style="whiteSpace=wrap;html=1;rounded=0;" vertex="1" parent="1">
          <mxGeometry x="2940" y="-240" width="120" height="60" as="geometry" />
        </mxCell>
        <mxCell id="M7gRF7yc7V4BCxx9e8g0-39" value="是" style="edgeStyle=orthogonalEdgeStyle;rounded=0;orthogonalLoop=1;jettySize=auto;html=1;" edge="1" parent="1" source="M7gRF7yc7V4BCxx9e8g0-37" target="M7gRF7yc7V4BCxx9e8g0-38">
          <mxGeometry relative="1" as="geometry" />
        </mxCell>
        <mxCell id="M7gRF7yc7V4BCxx9e8g0-37" value="上一步获取的切面信息是否为空" style="rhombus;whiteSpace=wrap;html=1;" vertex="1" parent="1">
          <mxGeometry x="3140" y="-260" width="80" height="80" as="geometry" />
        </mxCell>
        <mxCell id="M7gRF7yc7V4BCxx9e8g0-38" value="加上同步锁，用于防止多线程同时加载Aspect" style="whiteSpace=wrap;html=1;" vertex="1" parent="1">
          <mxGeometry x="3120" y="-450" width="120" height="60" as="geometry" />
        </mxCell>
        <mxCell id="M7gRF7yc7V4BCxx9e8g0-40" value="切面名称是否为空" style="whiteSpace=wrap;html=1;rounded=0;" vertex="1" parent="1">
          <mxGeometry x="3320" y="-260" width="120" height="60" as="geometry" />
        </mxCell>
      </root>
    </mxGraphModel>
  </diagram>
</mxfile>
